<svg xmlns="http://www.w3.org/2000/svg" width="1200" height="900" viewBox="0 0 1200 900" role="img" aria-label="Custom PC Build">
  <defs>
    <linearGradient id="bg" x1="0%" y1="0%" x2="100%" y2="100%">
      <stop offset="0%" stop-color="#0b3c5d"/>
      <stop offset="100%" stop-color="#1b6f8f"/>
    </linearGradient>
    <linearGradient id="glow" x1="0%" y1="0%" x2="100%" y2="0%">
      <stop offset="0%" stop-color="#39d0ff" stop-opacity="0.75"/>
      <stop offset="100%" stop-color="#6fffb0" stop-opacity="0.75"/>
    </linearGradient>
  </defs>
  <rect width="1200" height="900" fill="url(#bg)"/>
  <circle cx="170" cy="120" r="130" fill="#ffffff" opacity="0.08"/>
  <circle cx="1030" cy="170" r="180" fill="#ffffff" opacity="0.07"/>
  <circle cx="1000" cy="770" r="220" fill="#ffffff" opacity="0.06"/>

  <rect x="92" y="90" width="1016" height="720" rx="36" fill="#091d2d" opacity="0.85" stroke="#6ee7ff" stroke-opacity="0.2"/>

  <rect x="158" y="180" width="486" height="470" rx="28" fill="#0f172a" stroke="#4cc9f0" stroke-opacity="0.45" stroke-width="6"/>
  <rect x="200" y="220" width="260" height="260" rx="22" fill="#111827" stroke="#9cf8ff" stroke-width="5"/>
  <rect x="245" y="265" width="170" height="170" rx="18" fill="#0ea5e9" opacity="0.18"/>

  <circle cx="525" cy="290" r="64" fill="#111827" stroke="#6fffb0" stroke-width="6"/>
  <circle cx="525" cy="290" r="14" fill="#6fffb0"/>
  <circle cx="525" cy="445" r="64" fill="#111827" stroke="#39d0ff" stroke-width="6"/>
  <circle cx="525" cy="445" r="14" fill="#39d0ff"/>

  <rect x="700" y="190" width="350" height="250" rx="24" fill="#0b1220" stroke="#7dd3fc" stroke-width="5"/>
  <rect x="730" y="220" width="290" height="160" rx="16" fill="#0f172a"/>
  <rect x="770" y="470" width="210" height="22" rx="11" fill="#94a3b8" opacity="0.8"/>
  <rect x="740" y="530" width="270" height="110" rx="20" fill="#0b1220" stroke="#86efac" stroke-width="4"/>

  <rect x="170" y="700" width="860" height="24" rx="12" fill="url(#glow)"/>

  <text x="158" y="780" fill="#e2f7ff" font-size="52" font-weight="700" font-family="Segoe UI, Arial, sans-serif">Custom PC Setup</text>
  <text x="158" y="828" fill="#9ed8ec" font-size="28" font-weight="500" font-family="Segoe UI, Arial, sans-serif">Your configured build preview</text>
</svg>
